<svg width="96" height="103" viewBox="0 0 96 103" fill="none" xmlns="http://www.w3.org/2000/svg">
<g filter="url(#filter0_d_1_700)">
<mask id="path-1-inside-1_1_700" fill="white">
<path fill-rule="evenodd" clip-rule="evenodd" d="M69.8354 73.924C78.767 67.2153 84.5443 56.5341 84.5443 44.5036C84.5443 24.1949 68.0809 7.73145 47.7722 7.73145C27.4635 7.73145 11 24.1949 11 44.5036C11 64.8123 27.4635 81.2757 47.7722 81.2757C51.4666 81.2757 55.0337 80.7309 58.3977 79.7173L66.4482 87.4696C67.7186 88.693 69.8354 87.7926 69.8354 86.029V73.924Z"/>
</mask>
<path fill-rule="evenodd" clip-rule="evenodd" d="M69.8354 73.924C78.767 67.2153 84.5443 56.5341 84.5443 44.5036C84.5443 24.1949 68.0809 7.73145 47.7722 7.73145C27.4635 7.73145 11 24.1949 11 44.5036C11 64.8123 27.4635 81.2757 47.7722 81.2757C51.4666 81.2757 55.0337 80.7309 58.3977 79.7173L66.4482 87.4696C67.7186 88.693 69.8354 87.7926 69.8354 86.029V73.924Z" fill="white"/>
<path d="M69.8354 73.924L68.5735 72.2439L67.7342 72.8743V73.924H69.8354ZM58.3977 79.7173L59.8552 78.2037L58.9692 77.3505L57.7914 77.7054L58.3977 79.7173ZM66.4482 87.4696L64.9906 88.9832L64.9906 88.9832L66.4482 87.4696ZM82.443 44.5036C82.443 55.8453 76.9994 65.9149 68.5735 72.2439L71.0974 75.6041C80.5346 68.5156 86.6456 57.2229 86.6456 44.5036H82.443ZM47.7722 9.83271C66.9204 9.83271 82.443 25.3554 82.443 44.5036H86.6456C86.6456 23.0344 69.2413 5.63018 47.7722 5.63018V9.83271ZM13.1013 44.5036C13.1013 25.3554 28.624 9.83271 47.7722 9.83271V5.63018C26.303 5.63018 8.89873 23.0344 8.89873 44.5036H13.1013ZM47.7722 79.1745C28.624 79.1745 13.1013 63.6518 13.1013 44.5036H8.89873C8.89873 65.9728 26.303 83.377 47.7722 83.377V79.1745ZM57.7914 77.7054C54.622 78.6604 51.259 79.1745 47.7722 79.1745V83.377C51.6741 83.377 55.4455 82.8015 59.0039 81.7292L57.7914 77.7054ZM67.9057 85.956L59.8552 78.2037L56.9401 81.2309L64.9906 88.9832L67.9057 85.956ZM67.7342 86.029C67.7342 86.0373 67.7332 86.0306 67.7384 86.0143C67.7434 85.9985 67.7513 85.9826 67.7608 85.9689C67.7786 85.9433 67.7935 85.9368 67.7958 85.9358C67.7981 85.9348 67.8131 85.9286 67.8439 85.9335C67.8604 85.9362 67.8773 85.9415 67.8922 85.9489C67.9075 85.9565 67.9117 85.9618 67.9057 85.956L64.9906 88.9832C67.5958 91.4919 71.9367 89.6456 71.9367 86.029H67.7342ZM67.7342 73.924V86.029H71.9367V73.924H67.7342Z" fill="#27CBFF" mask="url(#path-1-inside-1_1_700)"/>
<g clip-path="url(#clip0_1_700)">
<mask id="mask0_1_700" style="mask-type:luminance" maskUnits="userSpaceOnUse" x="27" y="36" width="42" height="17">
<path d="M68.6743 36.0984H27.8096V52.9085H68.6743V36.0984Z" fill="white"/>
</mask>
<g mask="url(#mask0_1_700)">
<path d="M60.2684 36.0984C55.6342 36.0984 51.8633 39.8686 51.8633 44.5035C51.8633 49.1383 55.6342 52.9085 60.2684 52.9085V50.2001C57.1625 50.2001 54.7479 47.6093 54.7479 44.5035C54.7479 41.3976 57.1625 38.8068 60.2684 38.8068C62.8961 38.8068 64.9967 40.6795 65.616 43.117H60.2684V45.89H68.5585C68.6338 45.4388 68.6734 44.9762 68.6734 44.5035C68.6734 39.8686 64.9033 36.0984 60.2684 36.0984Z" fill="#FF7101"/>
<path d="M43.25 40.5517C43.25 38.0342 41.2019 36.0984 38.6851 36.0984C36.1682 36.0984 34.1201 38.0342 34.1201 40.5517V48.4552C34.1201 49.4174 33.3374 50.2001 32.3752 50.2001C31.413 50.2001 30.631 49.4174 30.631 48.4552V37.5084C30.6303 36.7298 29.9989 36.0984 29.2196 36.0984C28.4403 36.0984 27.8096 36.7298 27.8096 37.5084V48.4552C27.8096 50.9727 29.8577 52.9085 32.3745 52.9085C34.8913 52.9085 36.9402 50.9727 36.9402 48.4552V40.5517C36.9402 39.5895 37.7228 38.8068 38.6851 38.8068C39.6473 38.8068 40.4299 39.5895 40.4299 40.5517V48.4552C40.4299 50.9727 42.4781 52.9085 44.9956 52.9085C47.5131 52.9085 49.5605 50.9727 49.5605 48.4552V37.5084C49.5605 36.7298 48.9291 36.0984 48.1505 36.0984C47.3719 36.0984 46.7405 36.7298 46.7405 37.5084V48.4552C46.7405 49.4174 45.9578 50.2001 44.9962 50.2001C44.0347 50.2001 43.2514 49.4174 43.2514 48.4552V40.5517H43.25Z" fill="#0FA9FF"/>
</g>
</g>
</g>
<defs>
<filter id="filter0_d_1_700" x="0.1" y="0.831446" width="95.8" height="102.8" filterUnits="userSpaceOnUse" color-interpolation-filters="sRGB">
<feFlood flood-opacity="0" result="BackgroundImageFix"/>
<feColorMatrix in="SourceAlpha" type="matrix" values="0 0 0 0 0 0 0 0 0 0 0 0 0 0 0 0 0 0 127 0" result="hardAlpha"/>
<feOffset dy="4"/>
<feGaussianBlur stdDeviation="5.45"/>
<feComposite in2="hardAlpha" operator="out"/>
<feColorMatrix type="matrix" values="0 0 0 0 0 0 0 0 0 0 0 0 0 0 0 0 0 0 0.25 0"/>
<feBlend mode="normal" in2="BackgroundImageFix" result="effect1_dropShadow_1_700"/>
<feBlend mode="normal" in="SourceGraphic" in2="effect1_dropShadow_1_700" result="shape"/>
</filter>
<clipPath id="clip0_1_700">
<rect width="40.8822" height="16.8101" fill="white" transform="translate(27.8105 36.0986)"/>
</clipPath>
</defs>
</svg>
