<svg width="184" height="194" viewBox="0 0 184 194" fill="none" xmlns="http://www.w3.org/2000/svg">
<path d="M0 11.1004L0 182.3C0 188.431 4.96965 193.4 11.1 193.4H172.6C178.73 193.4 183.7 188.431 183.7 182.3V11.1004C183.7 4.97005 178.73 0.000396729 172.6 0.000396729H11.1C4.96965 0.000396729 0 4.97005 0 11.1004Z" fill="white"/>
<path d="M148.8 39.4004C143.2 39.4004 138.6 44.0004 138.6 49.6004C138.6 55.2004 143.2 59.8004 148.8 59.8004V56.5004C145 56.5004 142.1 53.4004 142.1 49.6004C142.1 45.8004 145 42.7004 148.8 42.7004C152.6 42.7004 154.5 45.0004 155.3 47.9004H148.8V51.3004H158.8C158.8 50.8004 158.9 50.2004 158.9 49.6004C158.9 44.0004 154.3 39.4004 148.7 39.4004H148.8Z" fill="#FF7101"/>
<path d="M128.2 44.8004C128.2 41.7004 125.7 39.4004 122.7 39.4004C119.7 39.4004 117.2 41.7004 117.2 44.8004V54.4004C117.2 55.6004 116.3 56.5004 115.1 56.5004C113.9 56.5004 113 55.6004 113 54.4004V41.1004C113 40.2004 112.2 39.4004 111.3 39.4004C110.4 39.4004 109.6 40.2004 109.6 41.1004V54.4004C109.6 57.5004 112.1 59.8004 115.1 59.8004C118.1 59.8004 120.6 57.5004 120.6 54.4004V44.8004C120.6 43.6004 121.5 42.7004 122.7 42.7004C123.9 42.7004 124.8 43.6004 124.8 44.8004V54.4004C124.8 57.5004 127.3 59.8004 130.3 59.8004C133.3 59.8004 135.8 57.5004 135.8 54.4004V41.1004C135.8 40.2004 135 39.4004 134.1 39.4004C133.2 39.4004 132.4 40.2004 132.4 41.1004V54.4004C132.4 55.6004 131.5 56.5004 130.3 56.5004C129.1 56.5004 128.2 55.6004 128.2 54.4004V44.8004Z" fill="#0FA9FF"/>
<path d="M158.4 64.3008H156.7V74.0008H158.4V64.3008Z" fill="#1003A3"/>
<path d="M153.2 71.3012C153.2 71.9012 152.9 72.2012 152.4 72.2012H147.5V73.9012H152.4C153.9 73.9012 154.9 72.8012 154.9 71.3012V64.2012H153.2V71.3012Z" fill="#1003A3"/>
<path d="M151 65.4004H149.3V70.8004H151V65.4004Z" fill="#1003A3"/>
<path d="M143.9 66.9016C144.4 66.9016 144.8 66.5016 144.8 66.0016C144.8 65.5016 144.4 65.1016 143.9 65.1016C143.4 65.1016 143 65.5016 143 66.0016C143 66.5016 143.4 66.9016 143.9 66.9016Z" fill="#1003A3"/>
<path d="M146.4 65.002C145.9 65.002 145.5 65.4019 145.5 65.9019C145.5 66.4019 145.9 66.802 146.4 66.802C146.9 66.802 147.3 66.4019 147.3 65.9019C147.3 65.4019 146.9 65.002 146.4 65.002Z" fill="#1003A3"/>
<path d="M144.3 71.3012C144.3 71.9012 144 72.2012 143.5 72.2012H141.9V71.6012C141.9 69.3012 140.1 67.7012 137.9 67.7012H135.2V69.4012H137.9C139.3 69.4012 140.2 70.2012 140.2 71.6012V72.2012H130.7C130.2 72.2012 129.9 71.8012 129.9 71.3012V64.2012H128.2V71.3012C128.2 72.8012 129.2 73.9012 130.7 73.9012H143.4C144.9 73.9012 145.9 72.8012 145.9 71.3012V67.5012H144.2V71.3012H144.3Z" fill="#1003A3"/>
<path d="M123.9 67.8008C123.3 67.8008 122.7 68.0008 121.8 68.4008L122.5 69.9008C123.2 69.7008 123.5 69.5008 123.9 69.5008C124.7 69.5008 125.3 70.1008 125.3 71.0008V72.3008H121.5V74.0008H127V71.0008C127 69.2008 125.7 67.8008 123.9 67.8008Z" fill="#1003A3"/>
<path d="M111.2 74.0008C111.9 74.0008 112.4 73.7008 112.8 73.2008C113.2 73.7008 113.7 74.0008 114.4 74.0008H114.9C116.4 74.0008 117.4 72.9008 117.4 71.4008V64.3008H115.7V71.4008C115.7 72.0008 115.5 72.3008 114.9 72.3008H114.4C113.9 72.3008 113.6 71.9008 113.6 71.4008V64.3008H111.9V71.4008C111.9 72.0008 111.6 72.3008 111.1 72.3008H109.6C109.6 72.1008 109.6 71.9008 109.6 71.8008C109.6 70.1008 108.2 68.7008 106.5 68.7008C104.8 68.7008 103.8 69.8008 103.5 71.2008C103.2 72.4008 102.4 72.4008 101.9 72.4008H97.0996C96.5996 72.4008 96.2996 72.0008 96.2996 71.5008V64.4008H94.5996V71.5008C94.5996 73.0008 95.5996 74.1008 97.0996 74.1008H101.9C102.7 74.1008 103.6 74.1008 103.9 73.4008C104.4 74.3008 105.4 74.9008 106.6 74.9008C107.8 74.9008 108.3 74.4008 108.7 74.1008H111.1L111.2 74.0008ZM106.7 73.1008C105.9 73.1008 105.3 72.5008 105.3 71.7008C105.3 70.9008 105.9 70.3008 106.7 70.3008C107.5 70.3008 108.1 70.9008 108.1 71.7008C108.1 72.5008 107.5 73.1008 106.7 73.1008Z" fill="#1003A3"/>
<path d="M89.4004 70.9008C89.4004 70.0008 90.2004 69.4008 91.1004 69.5008C91.5004 69.5008 91.8004 69.8008 92.1004 70.0008L93.0004 68.7008C92.4004 68.2008 91.6004 67.8008 90.7004 67.8008C89.0004 67.8008 87.7004 69.0008 87.7004 70.6008C87.7004 72.2008 87.9004 71.9008 88.3004 72.3008H86.9004V74.0008H93.6004V72.3008H90.8004C90.0004 72.3008 89.4004 71.6008 89.4004 70.9008Z" fill="#1003A3"/>
<path d="M79.3998 67.7016C77.6998 67.7016 76.2998 69.1016 76.2998 70.8016C76.2998 72.5016 77.6998 73.9016 79.4998 73.9016H80.7998C80.7998 74.7016 80.1998 75.3016 79.3998 75.3016C78.5998 75.3016 78.2998 75.1016 77.8998 74.6016L76.6998 75.7016C77.2998 76.5016 78.3998 77.0016 79.3998 77.0016C81.2998 77.0016 82.4998 75.6016 82.4998 73.8016V71.0016C82.4998 69.0016 81.1998 67.6016 79.3998 67.6016V67.7016ZM80.7998 72.3016H79.4998C78.5998 72.3016 77.9998 71.7016 77.9998 70.9016C77.9998 70.1016 78.5998 69.5016 79.3998 69.5016C80.1998 69.5016 80.7998 70.1016 80.7998 71.0016V72.3016Z" fill="#1003A3"/>
<path d="M74.9002 64.3008H73.2002V74.0008H74.9002V64.3008Z" fill="#1003A3"/>
<path d="M69.6998 71.3012C69.6998 71.9012 69.4998 72.2012 68.8998 72.2012H66.8998V71.6012C66.8998 69.3012 65.0998 67.7012 62.8998 67.7012H60.2998L64.2998 64.2012H61.9998L58.0998 67.7012V69.4012H62.7998C64.1998 69.4012 65.0998 70.2012 65.0998 71.6012V72.2012H55.7998C56.0998 71.7012 56.1998 71.2012 56.1998 70.8012C56.1998 69.1012 54.8998 67.7012 53.1998 67.7012H50.3998V72.2012H42.2998V67.7012H40.5998V73.9012C40.5998 74.7012 40.0998 75.2012 39.3998 75.3012C38.9998 75.3012 38.6998 75.3012 37.7998 75.3012V77.0012C38.1998 77.0012 39.1998 77.0012 39.4998 77.0012C41.4998 77.0012 42.2998 75.8012 42.2998 74.4012V74.0012H50.3998C50.4998 75.9012 51.6998 77.1012 53.2998 77.1012C54.8998 77.1012 56.1998 75.9012 56.1998 74.0012H68.7998C70.2998 74.0012 71.2998 72.9012 71.2998 71.4012V64.3012H69.5998V71.4012L69.6998 71.3012ZM54.5998 74.0012C54.5998 74.9012 54.0998 75.4012 53.3998 75.4012C52.6998 75.4012 52.1998 74.9012 52.1998 73.9012H52.8998C53.5998 73.9012 54.1998 73.7012 54.6998 73.4012V73.9012L54.5998 74.0012ZM53.0998 72.3012H52.0998V69.5012H53.1998C53.9998 69.5012 54.5998 70.1012 54.5998 70.9012C54.5998 71.7012 53.9998 72.3012 53.0998 72.3012Z" fill="#1003A3"/>
<path d="M38.4998 67.5012H36.7998V71.3012C36.7998 71.9012 36.5998 72.2012 35.9998 72.2012H34.7998C34.2998 72.2012 33.9998 71.8012 33.9998 71.3012V64.2012H32.2998V71.3012C32.2998 72.8012 33.2998 73.9012 34.7998 73.9012H35.9998C37.4998 73.9012 38.4998 72.8012 38.4998 71.3012V67.5012Z" fill="#1003A3"/>
<path d="M35.7998 75.2012C35.2998 75.2012 34.7998 75.6012 34.7998 76.2012C34.7998 76.8012 35.1998 77.2012 35.7998 77.2012C36.3998 77.2012 36.7998 76.8012 36.7998 76.2012C36.7998 75.6012 36.3998 75.2012 35.7998 75.2012Z" fill="#1003A3"/>
<path d="M27 70.9008C27 70.0008 27.8 69.4008 28.7 69.5008C29.1 69.5008 29.4 69.8008 29.7 70.0008L30.6 68.7008C30 68.2008 29.2 67.8008 28.3 67.8008C26.6 67.8008 25.3 69.0008 25.3 70.6008C25.3 72.2008 25.5 71.9008 25.9 72.3008H24.5V74.0008H31.2V72.3008H28.4C27.6 72.3008 27 71.6008 27 70.9008Z" fill="#1003A3"/>
<path d="M93.8 52.2008C93.8 49.6008 95.8 47.7008 98.4 47.7008C101 47.7008 103 49.7008 103 52.2008C103 54.7008 101 56.7008 98.4 56.7008C95.8 56.7008 93.8 54.7008 93.8 52.2008ZM97.9 59.7008C100 59.7008 102 58.6008 102.9 57.2008V59.3008H106.2V39.8008H102.9V47.2008C101.9 45.7008 100.1 44.7008 97.9 44.7008C93.8 44.7008 90.5 48.0008 90.5 52.2008C90.5 56.4008 93.8 59.7008 97.9 59.7008Z" fill="#1003A3"/>
<path d="M75.8996 52.2012C75.8996 49.6012 77.8996 47.7012 80.4996 47.7012C83.0996 47.7012 85.0996 49.7012 85.0996 52.2012C85.0996 54.7012 83.0996 56.7012 80.4996 56.7012C77.8996 56.7012 75.8996 54.7012 75.8996 52.2012ZM79.9996 59.7012C82.0996 59.7012 84.0996 58.6012 84.9996 57.2012V59.3012H88.2996V45.1012H84.9996V47.2012C83.9996 45.7012 82.1996 44.7012 79.9996 44.7012C75.8996 44.7012 72.5996 48.0012 72.5996 52.2012C72.5996 56.4012 75.8996 59.7012 79.9996 59.7012Z" fill="#1003A3"/>
<path d="M67.1992 51.0008V59.3008H70.3992V51.0008C70.3992 47.2008 68.1992 44.6008 64.9992 44.6008C61.7992 44.6008 61.4992 45.5008 60.4992 46.9008V39.8008H57.1992V59.3008H60.4992V51.5008C60.4992 49.5008 61.9992 47.8008 63.9992 47.8008C65.9992 47.8008 67.0992 49.0008 67.0992 51.1008L67.1992 51.0008Z" fill="#1003A3"/>
<path d="M54.0998 45.0996H50.7998V59.2996H54.0998V45.0996Z" fill="#1003A3"/>
<path d="M52.3994 43.4004C53.4994 43.4004 54.3994 42.5004 54.3994 41.4004C54.3994 40.3004 53.4994 39.4004 52.3994 39.4004C51.2994 39.4004 50.3994 40.3004 50.3994 41.4004C50.3994 42.5004 51.2994 43.4004 52.3994 43.4004Z" fill="#1003A3"/>
<path d="M44.6994 56.2004C43.3994 56.2004 42.6994 55.4004 42.6994 54.1004V48.3004H47.7994V45.2004H42.6994V39.9004H39.3994V54.1004C39.3994 57.4004 41.1994 59.4004 44.6994 59.4004H47.9994V56.3004H44.6994V56.2004Z" fill="#1003A3"/>
<path d="M24.5996 39.8008H37.0996V43.1008H27.9996V47.7008H36.0996V50.9008H27.9996V56.0008H37.2996V59.3008H24.5996V39.8008Z" fill="#1003A3"/>
<path d="M56.0998 140.6H74.0998L72.6998 137.8H67.1998C66.2998 137.8 65.4998 137.2 65.1998 136.4L56.3998 118.4H40.1998L47.6998 133.5C46.3998 132.5 44.8998 131.9 43.1998 131.9H24.7998L26.1998 134.7H31.6998C32.5998 134.7 33.3998 135.3 33.5998 136.1L42.3998 154.1H58.5998L51.0998 139C52.3998 140 53.8998 140.6 55.5998 140.6H55.9998H56.0998Z" fill="#29BF12"/>
<path d="M82.4994 136.201V124.601H91.2994V125.801C91.2994 126.201 90.9994 126.501 90.5994 126.501H84.5994V129.501H88.9994V130.601C88.9994 131.001 88.6994 131.301 88.2994 131.301H84.5994V134.401H91.2994V135.601C91.2994 136.001 90.9994 136.301 90.5994 136.301H82.3994L82.4994 136.201ZM97.4994 136.201V124.601H99.6994C99.9994 124.601 100.399 124.801 100.499 125.101L103.499 131.101C103.499 131.101 103.499 131.101 103.699 131.101L106.699 125.101C106.899 124.801 107.199 124.601 107.499 124.601H109.699V136.201H107.699V127.301L103.999 134.601C103.899 134.801 103.599 134.901 103.399 134.801C103.399 134.801 103.199 134.701 103.199 134.601L99.4994 127.301V136.201H97.4994ZM121.799 136.301C120.999 136.301 120.199 136.201 119.399 135.801C118.699 135.501 117.999 135.101 117.399 134.501C116.799 134.001 116.399 133.301 116.099 132.601C115.499 131.101 115.499 129.401 116.099 127.901C116.399 127.201 116.799 126.501 117.399 126.001C117.999 125.501 118.599 125.001 119.399 124.701C120.199 124.401 120.999 124.201 121.799 124.201C122.399 124.201 122.999 124.201 123.599 124.401C124.199 124.601 124.699 124.801 125.299 125.101C125.799 125.401 126.199 125.801 126.599 126.201L125.699 127.101C125.399 127.401 124.999 127.401 124.799 127.101C124.499 126.801 124.099 126.601 123.699 126.401C123.099 126.101 122.499 126.001 121.899 126.001C121.399 126.001 120.799 126.001 120.399 126.301C119.899 126.501 119.499 126.801 119.099 127.101C118.699 127.501 118.499 127.901 118.299 128.401C118.099 128.901 117.999 129.401 117.999 130.001C117.999 130.501 117.999 131.101 118.299 131.601C118.699 132.601 119.499 133.301 120.399 133.701C121.899 134.301 123.599 134.001 124.799 133.001C125.099 132.801 125.499 132.801 125.699 133.001L126.599 133.901C125.799 134.801 124.799 135.401 123.699 135.701C123.099 135.901 122.499 135.901 121.899 135.901L121.799 136.301ZM131.299 136.201L136.099 124.601H138.599L143.299 136.201H141.499C141.199 136.201 140.999 136.001 140.899 135.801L139.799 133.101H134.799L133.699 135.801C133.599 136.101 133.299 136.201 133.099 136.201H131.299ZM135.399 131.201H138.999L137.199 126.601L135.399 131.201ZM148.599 136.201V124.601H150.099C150.499 124.601 150.799 124.801 150.999 125.101L156.699 132.601V124.701H158.699V136.301H157.299C156.999 136.301 156.699 136.101 156.499 135.901L150.599 128.101V136.301H148.599V136.201ZM93.1994 143.701H93.2994C93.4994 143.701 93.7994 143.601 93.8994 143.401C94.0994 143.201 94.1994 143.001 94.1994 142.701C94.1994 142.401 94.1994 142.201 93.8994 142.001C93.6994 141.801 93.2994 141.701 92.9994 141.701C92.7994 141.701 92.6994 141.801 92.4994 142.001C92.2994 142.201 92.1994 142.401 92.1994 142.701C92.1994 143.001 92.1994 143.201 92.4994 143.401C92.6994 143.601 92.8994 143.701 93.0994 143.701M149.999 140.501H148.599L148.999 149.001C148.999 149.701 149.599 150.301 150.299 150.301H151.099L150.699 141.201C150.699 140.801 150.399 140.501 149.999 140.501ZM145.999 144.601C145.599 144.401 145.199 144.301 144.799 144.301C144.299 144.301 143.799 144.401 143.399 144.701C142.599 145.301 141.999 146.101 141.599 147.001C141.499 147.201 141.399 147.401 141.199 147.601C140.999 148.001 140.599 148.201 140.099 148.201H124.399C123.799 148.201 123.199 147.701 122.999 147.201C122.399 146.201 121.199 145.001 120.899 144.501V144.301C121.499 143.901 123.199 143.201 123.999 142.901C124.199 142.901 124.299 142.601 124.199 142.401L123.299 140.701C122.699 141.001 118.399 143.101 118.299 143.201C118.099 143.701 118.099 144.201 118.199 144.701C119.199 145.401 119.999 146.301 120.699 147.301C120.899 147.701 120.699 148.001 120.499 148.201C120.499 148.201 120.299 148.201 120.199 148.201H115.799H100.399C99.9994 148.201 99.5994 147.901 99.5994 147.401L99.3994 141.101C99.3994 140.701 99.0994 140.401 98.6994 140.401H97.2994L97.5994 148.101C97.5994 149.201 98.5994 150.101 99.6994 150.201H120.499C121.099 150.201 121.699 149.901 122.099 149.401C122.099 149.401 122.199 149.501 122.299 149.601C122.699 150.001 123.199 150.301 123.799 150.301H140.499C141.199 150.301 141.799 150.001 142.199 149.401C142.899 149.901 143.799 150.101 144.699 150.101C145.199 150.101 145.799 150.001 146.199 149.701C147.099 149.201 147.599 148.101 147.399 147.101C147.399 146.001 146.599 145.001 145.699 144.601H145.999ZM145.599 148.101C145.399 148.101 145.199 148.201 144.999 148.201C144.499 148.201 143.899 148.001 143.499 147.701C143.699 147.201 144.099 146.801 144.499 146.501C144.599 146.501 144.699 146.501 144.899 146.501C144.999 146.501 145.099 146.501 145.299 146.501C145.699 146.701 145.899 147.101 145.899 147.601C145.899 148.001 145.899 148.201 145.699 148.201L145.599 148.101ZM93.1994 150.201C92.6994 150.201 92.2994 150.201 91.7994 150.001C91.3994 150.001 90.9994 149.701 90.6994 149.501C90.3994 149.301 90.0994 149.001 89.8994 148.601C89.6994 148.201 89.5994 147.801 89.5994 147.301C89.5994 147.101 89.5994 146.901 89.5994 146.701C89.5994 146.401 89.5994 146.201 89.7994 145.901C89.7994 145.601 89.9994 145.301 90.0994 144.901L91.5994 145.401C91.5994 145.601 91.4994 145.801 91.3994 146.001C91.3994 146.201 91.3994 146.301 91.2994 146.501C91.2994 146.601 91.2994 146.801 91.2994 146.901C91.2994 147.201 91.2994 147.501 91.4994 147.701C91.6994 147.901 91.8994 148.101 92.1994 148.201C92.4994 148.201 92.7994 148.301 93.0994 148.301C93.3994 148.301 93.5994 148.301 93.7994 148.101C93.9994 148.101 94.2994 147.901 94.3994 147.701C94.4994 147.501 94.5994 147.301 94.6994 147.101C94.6994 146.901 94.6994 146.701 94.6994 146.501C94.6994 146.101 94.6994 145.801 94.4994 145.401C94.4994 145.101 94.2994 144.701 94.1994 144.401C94.1994 144.401 94.3994 144.101 95.5994 143.401C95.6994 143.701 95.8994 144.001 95.9994 144.201C96.0994 144.601 96.1994 145.001 96.2994 145.301C96.5994 147.201 96.2994 148.501 95.4994 149.201C94.7994 149.701 93.8994 150.001 92.9994 150.001L93.1994 150.201Z" fill="#041840"/>
<path opacity="0.2" d="M158.7 96.5996V95.8996C158.7 95.7339 158.566 95.5996 158.4 95.5996L25.1002 95.5996C24.9345 95.5996 24.8002 95.7339 24.8002 95.8996V96.5996C24.8002 96.7653 24.9345 96.8996 25.1002 96.8996L158.4 96.8996C158.566 96.8996 158.7 96.7653 158.7 96.5996Z" fill="#414042"/>
</svg>
