<svg width="166" height="68" xmlns="http://www.w3.org/2000/svg" xmlns:xlink="http://www.w3.org/1999/xlink" xml:space="preserve" overflow="hidden"><defs><clipPath id="clip0"><rect x="556" y="283" width="166" height="68"/></clipPath></defs><g clip-path="url(#clip0)" transform="translate(-556 -283)"><path d="M0 11.0806 0 181.974C0 188.094 4.96076 193.054 11.0802 193.054L172.291 193.054C178.41 193.054 183.372 188.094 183.372 181.974L183.372 11.0806C183.372 4.96116 178.41 0.00039602 172.291 0.00039602L11.0802 0.00039602C4.96076 0.00039602 0 4.96116 0 11.0806Z" fill="#FFFFFF" transform="matrix(1 0 0 1.00132 548.422 262.545)"/><path d="M148.534 39.3299C142.944 39.3299 138.352 43.9217 138.352 49.5117 138.352 55.1017 142.944 59.6935 148.534 59.6935L148.534 56.3994C144.741 56.3994 141.846 53.3049 141.846 49.5117 141.846 45.7185 144.741 42.624 148.534 42.624 152.327 42.624 154.224 44.9199 155.022 47.8147L148.534 47.8147 148.534 51.2087 158.516 51.2087C158.516 50.7096 158.616 50.1106 158.616 49.5117 158.616 43.9217 154.024 39.3299 148.434 39.3299L148.534 39.3299Z" fill="#FF7101" transform="matrix(1 0 0 1.00132 548.422 262.545)"/><path d="M127.971 44.7203C127.971 41.6258 125.475 39.3299 122.481 39.3299 119.486 39.3299 116.99 41.6258 116.99 44.7203L116.99 54.3031C116.99 55.501 116.092 56.3994 114.894 56.3994 113.696 56.3994 112.798 55.501 112.798 54.3031L112.798 41.0269C112.798 40.1285 111.999 39.3299 111.101 39.3299 110.203 39.3299 109.404 40.1285 109.404 41.0269L109.404 54.3031C109.404 57.3976 111.9 59.6935 114.894 59.6935 117.889 59.6935 120.384 57.3976 120.384 54.3031L120.384 44.7203C120.384 43.5224 121.283 42.624 122.481 42.624 123.678 42.624 124.577 43.5224 124.577 44.7203L124.577 54.3031C124.577 57.3976 127.072 59.6935 130.067 59.6935 133.062 59.6935 135.557 57.3976 135.557 54.3031L135.557 41.0269C135.557 40.1285 134.759 39.3299 133.86 39.3299 132.962 39.3299 132.163 40.1285 132.163 41.0269L132.163 54.3031C132.163 55.501 131.265 56.3994 130.067 56.3994 128.869 56.3994 127.971 55.501 127.971 54.3031L127.971 44.7203Z" fill="#0FA9FF" transform="matrix(1 0 0 1.00132 548.422 262.545)"/><path d="M158.117 64.1858 156.42 64.1858 156.42 73.8685 158.117 73.8685 158.117 64.1858Z" fill="#1003A3" transform="matrix(1 0 0 1.00132 548.422 262.545)"/><path d="M152.926 71.1737C152.926 71.7726 152.627 72.0721 152.127 72.0721L147.236 72.0721 147.236 73.7691 152.127 73.7691C153.625 73.7691 154.623 72.671 154.623 71.1737L154.623 64.0864 152.926 64.0864 152.926 71.1737Z" fill="#1003A3" transform="matrix(1 0 0 1.00132 548.422 262.545)"/><path d="M150.73 65.2835 149.033 65.2835 149.033 70.6738 150.73 70.6738 150.73 65.2835Z" fill="#1003A3" transform="matrix(1 0 0 1.00132 548.422 262.545)"/><path d="M143.643 66.782C144.142 66.782 144.541 66.3827 144.541 65.8836 144.541 65.3845 144.142 64.9852 143.643 64.9852 143.144 64.9852 142.744 65.3845 142.744 65.8836 142.744 66.3827 143.144 66.782 143.643 66.782Z" fill="#1003A3" transform="matrix(1 0 0 1.00132 548.422 262.545)"/><path d="M146.138 64.8858C145.639 64.8858 145.24 65.285 145.24 65.7841 145.24 66.2832 145.639 66.6825 146.138 66.6825 146.637 66.6825 147.037 66.2832 147.037 65.7841 147.037 65.285 146.637 64.8858 146.138 64.8858Z" fill="#1003A3" transform="matrix(1 0 0 1.00132 548.422 262.545)"/><path d="M144.042 71.1737C144.042 71.7726 143.743 72.0721 143.243 72.0721L141.646 72.0721 141.646 71.4732C141.646 69.1773 139.849 67.5801 137.653 67.5801L134.958 67.5801 134.958 69.2771 137.653 69.2771C139.051 69.2771 139.949 70.0757 139.949 71.4732L139.949 72.0721 130.466 72.0721C129.967 72.0721 129.668 71.6728 129.668 71.1737L129.668 64.0864 127.971 64.0864 127.971 71.1737C127.971 72.671 128.969 73.7691 130.466 73.7691L143.144 73.7691C144.641 73.7691 145.639 72.671 145.639 71.1737L145.639 67.3805 143.942 67.3805 143.942 71.1737 144.042 71.1737Z" fill="#1003A3" transform="matrix(1 0 0 1.00132 548.422 262.545)"/><path d="M123.678 67.6796C123.08 67.6796 122.481 67.8792 121.582 68.2785L122.281 69.7758C122.98 69.5762 123.279 69.3765 123.678 69.3765 124.477 69.3765 125.076 69.9754 125.076 70.8738L125.076 72.1715 121.283 72.1715 121.283 73.8685 126.773 73.8685 126.773 70.8738C126.773 69.0771 125.475 67.6796 123.678 67.6796Z" fill="#1003A3" transform="matrix(1 0 0 1.00132 548.422 262.545)"/><path d="M111.001 73.8685C111.7 73.8685 112.199 73.569 112.598 73.0699 112.998 73.569 113.497 73.8685 114.195 73.8685L114.695 73.8685C116.192 73.8685 117.19 72.7704 117.19 71.2731L117.19 64.1858 115.493 64.1858 115.493 71.2731C115.493 71.8721 115.293 72.1715 114.695 72.1715L114.195 72.1715C113.696 72.1715 113.397 71.7722 113.397 71.2731L113.397 64.1858 111.7 64.1858 111.7 71.2731C111.7 71.8721 111.4 72.1715 110.901 72.1715L109.404 72.1715C109.404 71.9719 109.404 71.7722 109.404 71.6724 109.404 69.9754 108.007 68.5779 106.31 68.5779 104.613 68.5779 103.614 69.676 103.315 71.0735 103.015 72.2713 102.217 72.2713 101.718 72.2713L96.926 72.2713C96.4269 72.2713 96.1274 71.8721 96.1274 71.3729L96.1274 64.2856 94.4304 64.2856 94.4304 71.3729C94.4304 72.8703 95.4287 73.9683 96.926 73.9683L101.718 73.9683C102.516 73.9683 103.415 73.9683 103.714 73.2696 104.213 74.1679 105.212 74.7669 106.409 74.7669 107.607 74.7669 108.106 74.2678 108.506 73.9683L110.901 73.9683 111.001 73.8685ZM106.509 72.9701C105.711 72.9701 105.112 72.3712 105.112 71.5726 105.112 70.774 105.711 70.1751 106.509 70.1751 107.308 70.1751 107.907 70.774 107.907 71.5726 107.907 72.3712 107.308 72.9701 106.509 72.9701Z" fill="#1003A3" transform="matrix(1 0 0 1.00132 548.422 262.545)"/><path d="M89.2405 70.774C89.2405 69.8756 90.0391 69.2767 90.9375 69.3765 91.3368 69.3765 91.6362 69.676 91.9357 69.8756L92.8341 68.5779C92.2352 68.0788 91.4366 67.6796 90.5382 67.6796 88.8413 67.6796 87.5436 68.8774 87.5436 70.4746 87.5436 72.0717 87.7432 71.7722 88.1425 72.1715L86.745 72.1715 86.745 73.8685 93.433 73.8685 93.433 72.1715 90.638 72.1715C89.8395 72.1715 89.2405 71.4728 89.2405 70.774Z" fill="#1003A3" transform="matrix(1 0 0 1.00132 548.422 262.545)"/><path d="M79.2578 67.5805C77.5609 67.5805 76.1634 68.978 76.1634 70.675 76.1634 72.372 77.5609 73.7695 79.3576 73.7695L80.6553 73.7695C80.6553 74.568 80.0564 75.1669 79.2578 75.1669 78.4593 75.1669 78.1598 74.9673 77.7605 74.4682L76.5626 75.5662C77.1616 76.3648 78.2596 76.8639 79.2578 76.8639 81.1544 76.8639 82.3523 75.4664 82.3523 73.6696L82.3523 70.8746C82.3523 68.8782 81.0546 67.4807 79.2578 67.4807L79.2578 67.5805ZM80.6553 72.1723 79.3576 72.1723C78.4593 72.1723 77.8603 71.5734 77.8603 70.7748 77.8603 69.9762 78.4593 69.3773 79.2578 69.3773 80.0564 69.3773 80.6553 69.9762 80.6553 70.8746L80.6553 72.1723Z" fill="#1003A3" transform="matrix(1 0 0 1.00132 548.422 262.545)"/><path d="M74.7663 64.1858 73.0693 64.1858 73.0693 73.8685 74.7663 73.8685 74.7663 64.1858Z" fill="#1003A3" transform="matrix(1 0 0 1.00132 548.422 262.545)"/><path d="M69.5752 71.1737C69.5752 71.7726 69.3755 72.0721 68.7766 72.0721L66.7802 72.0721 66.7802 71.4732C66.7802 69.1773 64.9834 67.5801 62.7873 67.5801L60.192 67.5801 64.1848 64.0864 61.8889 64.0864 57.9959 67.5801 57.9959 69.2771 62.6875 69.2771C64.085 69.2771 64.9834 70.0757 64.9834 71.4732L64.9834 72.0721 55.7 72.0721C55.9995 71.573 56.0993 71.0739 56.0993 70.6746 56.0993 68.9776 54.8016 67.5801 53.1047 67.5801L50.3097 67.5801 50.3097 72.0721 42.2242 72.0721 42.2242 67.5801 40.5272 67.5801 40.5272 73.7691C40.5272 74.5676 40.0281 75.0667 39.3293 75.1665 38.9301 75.1665 38.6306 75.1665 37.7322 75.1665L37.7322 76.8635C38.1315 76.8635 39.1297 76.8635 39.4292 76.8635 41.4256 76.8635 42.2242 75.6657 42.2242 74.2682L42.2242 73.8689 50.3097 73.8689C50.4095 75.7655 51.6074 76.9633 53.2045 76.9633 54.8016 76.9633 56.0993 75.7655 56.0993 73.8689L68.6768 73.8689C70.1741 73.8689 71.1723 72.7708 71.1723 71.2735L71.1723 64.1862 69.4753 64.1862 69.4753 71.2735 69.5752 71.1737ZM54.5022 73.8689C54.5022 74.7673 54.0031 75.2664 53.3043 75.2664 52.6056 75.2664 52.1065 74.7673 52.1065 73.7691L52.8052 73.7691C53.504 73.7691 54.1029 73.5694 54.602 73.27L54.602 73.7691 54.5022 73.8689ZM53.0048 72.1719 52.0066 72.1719 52.0066 69.3769 53.1047 69.3769C53.9032 69.3769 54.5022 69.9758 54.5022 70.7744 54.5022 71.573 53.9032 72.1719 53.0048 72.1719Z" fill="#1003A3" transform="matrix(1 0 0 1.00132 548.422 262.545)"/><path d="M38.431 67.3805 36.734 67.3805 36.734 71.1737C36.734 71.7726 36.5344 72.0721 35.9354 72.0721L34.7376 72.0721C34.2385 72.0721 33.939 71.6728 33.939 71.1737L33.939 64.0864 32.242 64.0864 32.242 71.1737C32.242 72.671 33.2403 73.7691 34.7376 73.7691L35.9354 73.7691C37.4327 73.7691 38.431 72.671 38.431 71.1737L38.431 67.3805Z" fill="#1003A3" transform="matrix(1 0 0 1.00132 548.422 262.545)"/><path d="M35.7358 75.0667C35.2367 75.0667 34.7376 75.466 34.7376 76.0649 34.7376 76.6639 35.1369 77.0632 35.7358 77.0632 36.3347 77.0632 36.734 76.6639 36.734 76.0649 36.734 75.466 36.3347 75.0667 35.7358 75.0667Z" fill="#1003A3" transform="matrix(1 0 0 1.00132 548.422 262.545)"/><path d="M26.9517 70.774C26.9517 69.8756 27.7503 69.2767 28.6487 69.3765 29.048 69.3765 29.3474 69.676 29.6469 69.8756L30.5453 68.5779C29.9464 68.0788 29.1478 67.6796 28.2494 67.6796 26.5524 67.6796 25.2548 68.8774 25.2548 70.4746 25.2548 72.0717 25.4544 71.7722 25.8537 72.1715L24.4562 72.1715 24.4562 73.8685 31.1442 73.8685 31.1442 72.1715 28.3492 72.1715C27.5506 72.1715 26.9517 71.4728 26.9517 70.774Z" fill="#1003A3" transform="matrix(1 0 0 1.00132 548.422 262.545)"/><path d="M93.6323 52.1075C93.6323 49.5121 95.6287 47.6155 98.224 47.6155 100.819 47.6155 102.816 49.6119 102.816 52.1075 102.816 54.603 100.819 56.5994 98.224 56.5994 95.6287 56.5994 93.6323 54.603 93.6323 52.1075ZM97.7249 59.594C99.8212 59.594 101.818 58.496 102.716 57.0985L102.716 59.1948 106.01 59.1948 106.01 39.7296 102.716 39.7296 102.716 47.1164C101.718 45.6191 99.921 44.6209 97.7249 44.6209 93.6323 44.6209 90.3382 47.915 90.3382 52.1075 90.3382 56.2999 93.6323 59.594 97.7249 59.594Z" fill="#1003A3" transform="matrix(1 0 0 1.00132 548.422 262.545)"/><path d="M75.7639 52.1079C75.7639 49.5125 77.7603 47.6159 80.3557 47.6159 82.951 47.6159 84.9474 49.6123 84.9474 52.1079 84.9474 54.6034 82.951 56.5998 80.3557 56.5998 77.7603 56.5998 75.7639 54.6034 75.7639 52.1079ZM79.8566 59.5944C81.9528 59.5944 83.9492 58.4964 84.8476 57.0989L84.8476 59.1952 88.1417 59.1952 88.1417 45.0206 84.8476 45.0206 84.8476 47.1168C83.8494 45.6195 82.0526 44.6213 79.8566 44.6213 75.7639 44.6213 72.4698 47.9154 72.4698 52.1079 72.4698 56.3003 75.7639 59.5944 79.8566 59.5944Z" fill="#1003A3" transform="matrix(1 0 0 1.00132 548.422 262.545)"/><path d="M67.079 50.9096 67.079 59.1948 70.2733 59.1948 70.2733 50.9096C70.2733 47.1164 68.0773 44.521 64.883 44.521 61.6887 44.521 61.3892 45.4194 60.391 46.8169L60.391 39.7296 57.0969 39.7296 57.0969 59.1948 60.391 59.1948 60.391 51.4087C60.391 49.4123 61.8883 47.7153 63.8848 47.7153 65.8812 47.7153 66.9792 48.9132 66.9792 51.0094L67.079 50.9096Z" fill="#1003A3" transform="matrix(1 0 0 1.00132 548.422 262.545)"/><path d="M54.0031 45.019 50.709 45.019 50.709 59.1936 54.0031 59.1936 54.0031 45.019Z" fill="#1003A3" transform="matrix(1 0 0 1.00132 548.422 262.545)"/><path d="M52.3057 43.3228C53.4037 43.3228 54.3021 42.4244 54.3021 41.3264 54.3021 40.2283 53.4037 39.3299 52.3057 39.3299 51.2077 39.3299 50.3093 40.2283 50.3093 41.3264 50.3093 42.4244 51.2077 43.3228 52.3057 43.3228Z" fill="#1003A3" transform="matrix(1 0 0 1.00132 548.422 262.545)"/><path d="M44.6195 56.0999C43.3218 56.0999 42.6231 55.3013 42.6231 54.0037L42.6231 48.214 47.7139 48.214 47.7139 45.1196 42.6231 45.1196 42.6231 39.8291 39.3289 39.8291 39.3289 54.0037C39.3289 57.2978 41.1257 59.2942 44.6195 59.2942L47.9136 59.2942 47.9136 56.1997 44.6195 56.1997 44.6195 56.0999Z" fill="#1003A3" transform="matrix(1 0 0 1.00132 548.422 262.545)"/><path d="M24.5556 39.7296 37.0333 39.7296 37.0333 43.0237 27.9495 43.0237 27.9495 47.6155 36.035 47.6155 36.035 50.8098 27.9495 50.8098 27.9495 55.9007 37.2329 55.9007 37.2329 59.1948 24.5556 59.1948 24.5556 39.7296Z" fill="#1003A3" transform="matrix(1 0 0 1.00132 548.422 262.545)"/><path d="M55.9995 140.349 73.9673 140.349 72.5698 137.554 67.0796 137.554C66.1812 137.554 65.3827 136.955 65.0832 136.156L56.299 118.188 40.1279 118.188 47.6145 133.261C46.3168 132.263 44.8195 131.664 43.1226 131.664L24.7555 131.664 26.153 134.459 31.6431 134.459C32.5415 134.459 33.3401 135.058 33.5397 135.857L42.324 153.824 58.495 153.824 51.0084 138.751C52.3061 139.75 53.8034 140.349 55.5004 140.349L55.8997 140.349 55.9995 140.349Z" fill="#29BF12" transform="matrix(1 0 0 1.00132 548.422 262.545)"/><path d="M82.3519 135.957 82.3519 124.378 91.1361 124.378 91.1361 125.576C91.1361 125.975 90.8367 126.275 90.4374 126.275L84.4481 126.275 84.4481 129.269 88.8403 129.269 88.8403 130.367C88.8403 130.767 88.5408 131.066 88.1415 131.066L84.4481 131.066 84.4481 134.161 91.1361 134.161 91.1361 135.359C91.1361 135.758 90.8367 136.057 90.4374 136.057L82.2521 136.057 82.3519 135.957ZM97.3251 135.957 97.3251 124.378 99.5211 124.378C99.8206 124.378 100.219 124.578 100.319 124.877L103.314 130.867C103.314 130.867 103.314 130.867 103.514 130.867L106.508 124.877C106.708 124.578 107.007 124.378 107.307 124.378L109.503 124.378 109.503 135.957 107.506 135.957 107.506 127.073 103.813 134.36C103.713 134.56 103.414 134.66 103.214 134.56 103.214 134.56 103.014 134.46 103.014 134.36L99.3215 127.073 99.3215 135.957 97.3251 135.957ZM121.581 136.057C120.783 136.057 119.984 135.957 119.186 135.558 118.487 135.259 117.788 134.859 117.189 134.26 116.59 133.761 116.191 133.063 115.891 132.364 115.292 130.867 115.292 129.17 115.891 127.672 116.191 126.974 116.59 126.275 117.189 125.776 117.788 125.277 118.387 124.777 119.186 124.478 119.984 124.179 120.783 123.979 121.581 123.979 122.18 123.979 122.779 123.979 123.378 124.179 123.977 124.378 124.476 124.578 125.075 124.877 125.574 125.177 125.973 125.576 126.373 125.975L125.474 126.874C125.175 127.173 124.775 127.173 124.576 126.874 124.276 126.574 123.877 126.375 123.478 126.175 122.879 125.876 122.28 125.776 121.681 125.776 121.182 125.776 120.583 125.776 120.184 126.075 119.685 126.275 119.285 126.574 118.886 126.874 118.487 127.273 118.287 127.672 118.087 128.171 117.888 128.671 117.788 129.17 117.788 129.769 117.788 130.268 117.788 130.867 118.087 131.366 118.487 132.364 119.285 133.063 120.184 133.462 121.681 134.061 123.378 133.761 124.576 132.763 124.875 132.564 125.275 132.564 125.474 132.763L126.373 133.662C125.574 134.56 124.576 135.159 123.478 135.458 122.879 135.658 122.28 135.658 121.681 135.658L121.581 136.057ZM131.064 135.957 135.856 124.378 138.351 124.378 143.043 135.957 141.246 135.957C140.947 135.957 140.747 135.758 140.647 135.558L139.549 132.863 134.558 132.863 133.46 135.558C133.36 135.858 133.061 135.957 132.861 135.957L131.064 135.957ZM135.157 130.966 138.75 130.966 136.954 126.375 135.157 130.966ZM148.333 135.957 148.333 124.378 149.831 124.378C150.23 124.378 150.529 124.578 150.729 124.877L156.419 132.364 156.419 124.478 158.415 124.478 158.415 136.057 157.018 136.057C156.718 136.057 156.419 135.858 156.219 135.658L150.33 127.872 150.33 136.057 148.333 136.057 148.333 135.957ZM93.0327 143.444 93.1326 143.444C93.3322 143.444 93.6317 143.344 93.7315 143.145 93.9311 142.945 94.031 142.745 94.031 142.446 94.031 142.146 94.031 141.947 93.7315 141.747 93.5319 141.547 93.1326 141.448 92.8331 141.448 92.6335 141.448 92.5336 141.547 92.334 141.747 92.1344 141.947 92.0345 142.146 92.0345 142.446 92.0345 142.745 92.0345 142.945 92.334 143.145 92.5336 143.344 92.7333 143.444 92.9329 143.444M149.731 140.25 148.333 140.25 148.733 148.735C148.733 149.433 149.331 150.032 150.03 150.032L150.829 150.032 150.43 140.949C150.43 140.549 150.13 140.25 149.731 140.25ZM145.738 144.342C145.339 144.143 144.939 144.043 144.54 144.043 144.041 144.043 143.542 144.143 143.143 144.442 142.344 145.041 141.745 145.84 141.346 146.738 141.246 146.938 141.146 147.137 140.947 147.337 140.747 147.736 140.348 147.936 139.848 147.936L124.177 147.936C123.578 147.936 122.979 147.437 122.779 146.938 122.18 145.94 120.982 144.742 120.683 144.243L120.683 144.043C121.282 143.644 122.979 142.945 123.777 142.645 123.977 142.645 124.077 142.346 123.977 142.146L123.079 140.449C122.48 140.749 118.187 142.845 118.087 142.945 117.888 143.444 117.888 143.943 117.988 144.442 118.986 145.141 119.784 146.039 120.483 147.038 120.683 147.437 120.483 147.736 120.284 147.936 120.284 147.936 120.084 147.936 119.984 147.936L115.592 147.936 100.219 147.936C99.8206 147.936 99.4213 147.637 99.4213 147.137L99.2217 140.849C99.2217 140.449 98.9222 140.15 98.5229 140.15L97.1254 140.15 97.4249 147.836C97.4249 148.934 98.4231 149.833 99.5211 149.932L120.284 149.932C120.882 149.932 121.481 149.633 121.881 149.134 121.881 149.134 121.98 149.234 122.08 149.333 122.48 149.733 122.979 150.032 123.578 150.032L140.248 150.032C140.947 150.032 141.545 149.733 141.945 149.134 142.643 149.633 143.542 149.833 144.44 149.833 144.939 149.833 145.538 149.733 145.938 149.433 146.836 148.934 147.335 147.836 147.135 146.838 147.135 145.74 146.337 144.742 145.438 144.342L145.738 144.342ZM145.339 147.836C145.139 147.836 144.939 147.936 144.74 147.936 144.241 147.936 143.642 147.736 143.242 147.437 143.442 146.938 143.841 146.538 144.241 146.239 144.34 146.239 144.44 146.239 144.64 146.239 144.74 146.239 144.84 146.239 145.039 146.239 145.438 146.439 145.638 146.838 145.638 147.337 145.638 147.736 145.638 147.936 145.438 147.936L145.339 147.836ZM93.0327 149.932C92.5336 149.932 92.1344 149.932 91.6353 149.733 91.236 149.733 90.8367 149.433 90.5372 149.234 90.2378 149.034 89.9383 148.735 89.7386 148.335 89.539 147.936 89.4392 147.537 89.4392 147.038 89.4392 146.838 89.4392 146.638 89.4392 146.439 89.4392 146.139 89.4392 145.94 89.6388 145.64 89.6388 145.341 89.8385 145.041 89.9383 144.642L91.4356 145.141C91.4356 145.341 91.3358 145.54 91.236 145.74 91.236 145.94 91.236 146.039 91.1361 146.239 91.1361 146.339 91.1361 146.538 91.1361 146.638 91.1361 146.938 91.1361 147.237 91.3358 147.437 91.5354 147.637 91.7351 147.836 92.0345 147.936 92.334 147.936 92.6335 148.036 92.9329 148.036 93.2324 148.036 93.432 148.036 93.6317 147.836 93.8313 147.836 94.1308 147.637 94.2306 147.437 94.3304 147.237 94.4302 147.038 94.5301 146.838 94.5301 146.638 94.5301 146.439 94.5301 146.239 94.5301 145.84 94.5301 145.54 94.3304 145.141 94.3304 144.842 94.1308 144.442 94.031 144.143 94.031 144.143 94.2306 143.843 95.4285 143.145 95.5283 143.444 95.7279 143.744 95.8277 143.943 95.9276 144.342 96.0274 144.742 96.1272 145.041 96.4267 146.938 96.1272 148.235 95.3286 148.934 94.6299 149.433 93.7315 149.733 92.8331 149.733L93.0327 149.932Z" fill="#041840" transform="matrix(1 0 0 1.00132 548.422 262.545)"/><path d="M158.416 96.4269 158.416 95.7281C158.416 95.5627 158.282 95.4287 158.117 95.4287L25.0553 95.4287C24.8899 95.4287 24.7559 95.5627 24.7559 95.7281L24.7559 96.4269C24.7559 96.5923 24.8899 96.7263 25.0553 96.7263L158.117 96.7263C158.282 96.7263 158.416 96.5923 158.416 96.4269Z" fill="#414042" fill-opacity="0.2" transform="matrix(1 0 0 1.00132 548.422 262.545)"/></g></svg>